<?xml version="1.0" encoding="UTF-8"?>
<svg xmlns="http://www.w3.org/2000/svg" id="Layer_1" data-name="Layer 1" viewBox="0 0 24 24">
  <path d="m6.6,17.5v3c0,.496.404.9.9.9s.9-.404.9-.9h1.6c0,1.381-1.119,2.5-2.5,2.5s-2.5-1.119-2.5-2.5v-3c0-1.381,1.119-2.5,2.5-2.5s2.5,1.119,2.5,2.5h-1.6c0-.496-.404-.9-.9-.9s-.9.404-.9.9Zm15.905-2.5c-.342,0-.66.242-.841.64l-1.164,2.56-1.164-2.56c-.181-.398-.499-.64-.841-.64-.516,0-.945.295-.988,1l-.508,7h1.604l.319-4.402,1.577,3.468,1.577-3.469.319,4.402h1.604l-.508-7c-.043-.705-.472-1-.988-1Zm-7.572,4.544c.024-.014,1.067,3.456,1.067,3.456h-1.744l-.872-3h-.784v3h-1.6v-8h2.5c1.381,0,2.5,1.119,2.5,2.5,0,.846-.423,1.592-1.067,2.044Zm-.533-2.044c0-.496-.404-.9-.9-.9h-.9v1.8h.9c.496,0,.9-.404.9-.9Zm9.6-13v8.5h-3v-5H3v15H0V4.5C0,2.57,1.57,1,3.5,1h17c1.93,0,3.5,1.57,3.5,3.5Zm-18,0c0-.828-.672-1.5-1.5-1.5s-1.5.672-1.5,1.5.672,1.5,1.5,1.5,1.5-.672,1.5-1.5Zm5,0c0-.828-.672-1.5-1.5-1.5s-1.5.672-1.5,1.5.672,1.5,1.5,1.5,1.5-.672,1.5-1.5Z"/>
</svg>
